HIERARCHY
ROOT Hips
{
	OFFSET 0.000000 0.000000 0.000000
	CHANNELS 6 Xposition Yposition Zposition Zrotation Yrotation Xrotation 
	JOINT LHipJoint
	{
		OFFSET 0.000000 0.000000 0.000000
		CHANNELS 3 Zrotation Yrotation Xrotation
		JOINT LeftUpLeg
		{
			OFFSET 1.363060 -1.794630 0.839290
			CHANNELS 3 Zrotation Yrotation Xrotation
			JOINT LeftLeg
			{
				OFFSET 2.448110 -6.726130 0.000000
				CHANNELS 3 Zrotation Yrotation Xrotation
				JOINT LeftFoot
				{
					OFFSET 2.562200 -7.039590 0.000000
					CHANNELS 3 Zrotation Yrotation Xrotation
					JOINT LeftToeBase
					{
						OFFSET 0.157640 -0.433110 2.322550
						CHANNELS 3 Zrotation Yrotation Xrotation
						End Site
						{
							OFFSET 0.000000 0.000000 0.000000
						}
					}
				}
			}
		}
	}
	JOINT RHipJoint
	{
		OFFSET 0.000000 0.000000 0.000000
		CHANNELS 3 Zrotation Yrotation Xrotation
		JOINT RightUpLeg
		{
			OFFSET -1.305520 -1.794630 0.839290
			CHANNELS 3 Zrotation Yrotation Xrotation
			JOINT RightLeg
			{
				OFFSET -2.542530 -6.985550 0.000000
				CHANNELS 3 Zrotation Yrotation Xrotation
				JOINT RightFoot
				{
					OFFSET -2.568260 -7.056230 0.000000
					CHANNELS 3 Zrotation Yrotation Xrotation
					JOINT RightToeBase
					{
						OFFSET -0.164730 -0.452590 2.363150
						CHANNELS 3 Zrotation Yrotation Xrotation
						End Site
						{
							OFFSET 0.000000 0.000000 0.000000
						}
					}
				}
			}
		}
	}
	JOINT LowerBack
	{
		OFFSET 0.000000 0.000000 0.000000
		CHANNELS 3 Zrotation Yrotation Xrotation
		JOINT Spine
		{
			OFFSET 0.028270 2.035590 -0.193380
			CHANNELS 3 Zrotation Yrotation Xrotation
			JOINT Spine1
			{
				OFFSET 0.056720 2.048850 -0.042750
				CHANNELS 3 Zrotation Yrotation Xrotation
				JOINT Neck
				{
					OFFSET 0.000000 0.000000 0.000000
					CHANNELS 3 Zrotation Yrotation Xrotation
					JOINT Neck1
					{
						OFFSET -0.054170 1.746240 0.172020
						CHANNELS 3 Zrotation Yrotation Xrotation
						JOINT Head
						{
							OFFSET 0.104070 1.761360 -0.123970
							CHANNELS 3 Zrotation Yrotation Xrotation
							End Site
							{
								OFFSET 0.000000 0.000000 0.000000
							}
						}
					}
				}
				JOINT LeftShoulder
				{
					OFFSET 0.000000 0.000000 0.000000
					CHANNELS 3 Zrotation Yrotation Xrotation
					JOINT LeftArm
					{
						OFFSET 3.362410 1.200890 -0.311210
						CHANNELS 3 Zrotation Yrotation Xrotation
						JOINT LeftForeArm
						{
							OFFSET 4.983000 -0.000000 -0.000000
							CHANNELS 3 Zrotation Yrotation Xrotation
							JOINT LeftHand
							{
								OFFSET 3.483560 -0.000000 -0.000000
								CHANNELS 3 Zrotation Yrotation Xrotation
								JOINT LeftFingerBase
								{
									OFFSET 0.000000 0.000000 0.000000
									CHANNELS 3 Zrotation Yrotation Xrotation
									JOINT LeftHandIndex1
									{
										OFFSET 0.715260 -0.000000 -0.000000
										CHANNELS 3 Zrotation Yrotation Xrotation
										End Site
										{
											OFFSET 0.000000 0.000000 0.000000
										}
									}
								}
								JOINT LThumb
								{
									OFFSET 0.000000 0.000000 0.000000
									CHANNELS 3 Zrotation Yrotation Xrotation
									End Site
									{
										OFFSET 0.000000 0.000000 0.000000
									}
								}
							}
						}
					}
				}
				JOINT RightShoulder
				{
					OFFSET 0.000000 0.000000 0.000000
					CHANNELS 3 Zrotation Yrotation Xrotation
					JOINT RightArm
					{
						OFFSET -3.136600 1.374050 -0.404650
						CHANNELS 3 Zrotation Yrotation Xrotation
						JOINT RightForeArm
						{
							OFFSET -5.241900 -0.000000 -0.000000
							CHANNELS 3 Zrotation Yrotation Xrotation
							JOINT RightHand
							{
								OFFSET -3.444170 -0.000000 -0.000000
								CHANNELS 3 Zrotation Yrotation Xrotation
								JOINT RightFingerBase
								{
									OFFSET 0.000000 0.000000 0.000000
									CHANNELS 3 Zrotation Yrotation Xrotation
									JOINT RightHandIndex1
									{
										OFFSET -0.622530 -0.000000 -0.000000
										CHANNELS 3 Zrotation Yrotation Xrotation
										End Site
										{
											OFFSET 0.000000 0.000000 0.000000
										}
									}
								}
								JOINT RThumb
								{
									OFFSET 0.000000 0.000000 0.000000
									CHANNELS 3 Zrotation Yrotation Xrotation
									End Site
									{
										OFFSET 0.000000 0.000000 0.000000
									}
								}
							}
						}
					}
				}
			}
		}
	}
}
MOTION
Frames: 5
Frame Time: 0.008333
1.080541 9.951548 -6.905172 -0.033097 -67.819103 -16.515745 2.708671 3.136054 2.315150 4.275719 -2.218570 -77.124069 17.697782 21.694804 82.110533 1.824726 -5.749821 25.597406 0.304300 -3.546900 -9.805300 -3.876738 -4.497370 6.086633 -2.135632 9.369523 -83.455392 -20.351587 -21.977562 88.212081 1.325420 -12.589384 18.992262 -0.329000 -3.686500 10.196300 3.602752 1.872286 32.252202 -1.539095 1.973279 27.059845 -0.850973 0.810086 -7.973561 -1.656224 5.311071 -16.506099 -0.846432 7.844554 4.666079 1.054000 3.972500 2.763200 -3.188745 -5.194557 0.569323 -79.367348 -64.257515 52.613760 31.158363 -37.790130 -12.840298 -1.070679 -0.681754 18.079235 31.812765 18.253198 11.908000 -7.125000 0.000000 0.000000 4.518700 52.427700 0.827500 3.029523 6.372134 0.102366 58.191545 57.032370 40.184672 -36.155287 36.028208 -17.320596 0.102401 -0.171653 32.347016 -32.492886 12.336057 -7.852000 7.125000 0.000000 0.000000 -3.715700 -15.341200 -2.605800 
1.074354 9.955084 -6.900556 -0.536783 -67.880111 -15.957403 2.717988 3.149262 2.318633 4.504508 -2.185809 -77.240075 17.717225 21.708272 82.140687 1.824722 -5.623562 25.666803 0.275800 -3.377800 -9.332500 -3.881863 -4.490451 6.086147 -1.951339 9.411487 -83.488582 -20.347930 -21.973050 88.205798 1.346041 -12.626721 18.908952 -0.356700 -3.836900 10.618100 3.784350 1.858199 32.290483 -1.403520 2.009646 27.012711 -0.914910 0.841525 -8.048584 -1.671955 5.213254 -16.553931 -0.843300 7.714729 4.583558 1.049000 3.908800 2.754300 -3.205911 -5.175112 0.543447 -79.581970 -63.956548 52.640847 31.709210 -38.301549 -13.260866 -1.096594 -0.706227 17.220407 32.902933 18.730432 12.709000 -7.125000 0.000000 0.000000 5.662500 53.222000 1.148100 3.031752 6.356572 0.088288 58.107298 56.829209 40.158361 -36.304035 36.193217 -17.463244 0.108452 -0.140534 32.262932 -32.313037 12.140652 -7.656000 7.125000 0.000000 0.000000 -3.611400 -15.634400 -2.509600 
1.067184 9.957834 -6.897315 -0.823330 -67.891588 -15.590190 2.719940 3.154260 2.320274 4.637253 -2.214027 -77.361236 17.722899 21.714212 82.169221 1.828359 -5.743735 25.619392 0.310500 -3.582100 -9.903900 -3.886140 -4.488893 6.088167 -1.830445 9.430156 -83.556645 -20.348250 -21.973422 88.211513 1.349704 -12.627906 18.887863 -0.337200 -3.731500 10.322500 3.826163 1.864970 32.315008 -1.284490 2.020974 26.959334 -0.894416 0.857669 -8.116385 -1.668032 5.122000 -16.449133 -0.870575 7.588016 4.211405 1.023000 3.850900 2.631200 -3.221396 -5.157895 0.506254 -79.560604 -63.677206 52.342824 32.256039 -38.768329 -13.667950 -1.095481 -0.727934 17.041826 33.194841 19.162500 13.115200 -7.125000 0.000000 0.000000 5.929300 53.800500 1.286400 3.035717 6.348231 0.087525 58.096645 56.693554 40.230263 -36.350516 36.265641 -17.519682 0.120283 -0.143278 32.359721 -32.577289 12.149419 -7.737900 7.125000 0.000000 0.000000 -3.799600 -15.591700 -2.644400 
1.060309 9.959602 -6.896529 -0.650974 -67.843101 -15.656380 2.715350 3.147693 2.318186 4.574289 -2.258170 -77.433082 17.721159 21.711900 82.186688 1.827147 -5.879411 25.521907 0.344900 -3.773600 -10.440500 -3.886731 -4.494379 6.091769 -1.881650 9.368314 -83.663446 -20.357741 -21.985331 88.241253 1.340120 -12.595744 18.904536 -0.306100 -3.556900 9.833200 3.692652 1.881188 32.291658 -1.290084 1.987691 26.959828 -0.801225 0.838488 -8.097525 -1.635899 5.030938 -16.290329 -0.881667 7.453337 3.698060 0.995700 3.792200 2.455400 -3.216818 -5.150220 0.457677 -79.173720 -63.517791 51.952611 32.779316 -39.167347 -14.046209 -1.090777 -0.748818 16.781217 33.302231 19.547830 13.404900 -7.125000 0.000000 0.000000 5.999700 54.281900 1.372300 3.036027 6.345293 0.110159 58.217576 56.736963 40.495026 -36.367179 36.267251 -17.528238 0.143968 -0.150275 32.574918 -33.112079 11.798292 -7.673900 7.125000 0.000000 0.000000 -4.224100 -15.933900 -2.910200 
1.054810 9.960682 -6.897119 -0.232229 -67.778749 -15.955327 2.708549 3.135675 2.314093 4.431171 -2.307672 -77.480622 17.722920 21.706469 82.199078 1.822484 -5.879279 25.480080 0.343700 -3.767300 -10.422900 -3.884636 -4.504000 6.096659 -2.062184 9.246409 -83.806466 -20.374113 -22.005936 88.289405 1.320079 -12.536489 18.949197 -0.317700 -3.623300 10.019100 3.483254 1.877004 32.211048 -1.370079 1.904132 27.027761 -0.684964 0.786916 -7.985658 -1.697682 4.953676 -16.274406 -0.847129 7.349520 3.308922 1.005700 3.747000 2.336500 -3.193432 -5.154779 0.417492 -78.699396 -63.449365 51.414296 33.251206 -39.502396 -14.385059 -1.102362 -0.763909 16.141325 33.846915 19.877498 13.884500 -7.125000 0.000000 0.000000 6.588700 54.791000 1.589700 3.027693 6.344294 0.130827 58.307588 56.900129 40.856508 -36.396448 36.247729 -17.535346 0.170886 -0.157294 32.248475 -33.632586 11.608994 -7.702700 7.125000 0.000000 0.000000 -4.622500 -16.090300 -3.170700 
